<svg width="32" height="32" viewBox="0 0 32 32" fill="none" xmlns="http://www.w3.org/2000/svg">
<path d="M26.6667 9.33333V6.66667C26.6667 5.196 25.4707 4 24 4H6.66667C4.46133 4 2.66667 5.79467 2.66667 8V24C2.66667 26.9347 5.05867 28 6.66667 28H26.6667C28.1373 28 29.3333 26.804 29.3333 25.3333V12C29.3333 10.5293 28.1373 9.33333 26.6667 9.33333ZM24 21.3333H21.3333V16H24V21.3333ZM6.66667 9.33333C6.32336 9.31798 5.99921 9.17079 5.7617 8.92242C5.5242 8.67406 5.39164 8.34365 5.39164 8C5.39164 7.65635 5.5242 7.32594 5.7617 7.07758C5.99921 6.82921 6.32336 6.68202 6.66667 6.66667H24V9.33333H6.66667Z" fill="white"/>
</svg>
